<svg xmlns="http://www.w3.org/2000/svg" viewBox="0 0 512 512">
  <!-- Background -->
  <rect width="512" height="512" rx="96" fill="#0f172a"/>

  <!-- Outer shield -->
  <path
    d="M256 54 L410 112 V232 C410 338 342 426 256 466 C170 426 102 338 102 232 V112 Z"
    fill="#1e3a8a"
  />

  <!-- Inner shield -->
  <path
    d="M256 86 L374 132 V232 C374 318 323 391 256 428 C189 391 138 318 138 232 V132 Z"
    fill="#2563eb"
  />

  <!-- Wings -->
  <path
    d="M82 230 C120 194 164 174 216 166 L204 190 C158 198 118 216 82 246 Z"
    fill="#f8fafc"
  />
  <path
    d="M430 230 C392 194 348 174 296 166 L308 190 C354 198 394 216 430 246 Z"
    fill="#f8fafc"
  />

  <!-- Center circle -->
  <circle cx="256" cy="208" r="58" fill="#facc15"/>
  <circle cx="256" cy="208" r="40" fill="#0f172a"/>

  <!-- CAP text -->
  <text
    x="256"
    y="220"
    text-anchor="middle"
    font-size="34"
    font-family="Arial, Helvetica, sans-serif"
    font-weight="900"
    fill="#ffffff"
  >
    CAP
  </text>

  <!-- Cadet chevrons -->
  <path d="M176 292 L256 252 L336 292 L316 316 L256 286 L196 316 Z" fill="#facc15"/>
  <path d="M188 344 L256 310 L324 344 L304 368 L256 344 L208 368 Z" fill="#facc15"/>

  <!-- Bottom highlight -->
  <path
    d="M180 392 C210 414 232 426 256 438 C280 426 302 414 332 392"
    fill="none"
    stroke="#93c5fd"
    stroke-width="10"
    stroke-linecap="round"
  />
</svg>